# xmcd
#
# Track frame offsets:
#	150
#	15625
#	33037
#	47132
#	62605
#	82450
#	97400
#	113400
#	130367
#	148265
#	163060
#	180490
#	199697
#	218185
#	234917
#	252496
#	270371
#	288959
#	305704
#	323568
#
# Disc length: 4588 seconds
#
# Revision: 1
# Processed by: cddbd v1.5.1PL2 Copyright (c) Steve Scherf et al.
# Submitted via: audiograbber 1.83.01
#
DISCID=2311ea14
DTITLE=Backstreet Boys - Black and Blue
DYEAR=2000
DGENRE=
TTITLE0=The Call
TTITLE1=Shape Of My Heart
TTITLE2=Get Another Boyfriend
TTITLE3=Shining Star
TTITLE4=I Promise You
TTITLE5=The Answer To Our Life
TTITLE6=Everyone
TTITLE7=More Than That
TTITLE8=Time
TTITLE9=Not For Me
TTITLE10=Yes I Will
TTITLE11=It's True
TTITLE12=How Did I Fall In Love With You
TTITLE13=We've Got It Goin' On
TTITLE14=Get Down
TTITLE15=Show me The Meaning Of Being Lonley
TTITLE16=I Wanna Be With You
TTITLE17=As Long As You Love Me
TTITLE18=Larger Than Life
TTITLE19=All I Have To Give
EXTD=
EXTT0=
EXTT1=
EXTT2=
EXTT3=
EXTT4=
EXTT5=
EXTT6=
EXTT7=
EXTT8=
EXTT9=
EXTT10=
EXTT11=
EXTT12=
EXTT13=
EXTT14=
EXTT15=
EXTT16=
EXTT17=
EXTT18=
EXTT19=
PLAYORDER=
